<?xml version="1.0" encoding="UTF-8"?>
<svg width="32px" height="32px" viewBox="0 0 32 32" version="1.1" xmlns="http://www.w3.org/2000/svg" xmlns:xlink="http://www.w3.org/1999/xlink">
    <!-- Generator: Sketch 46.2 (44496) - http://www.bohemiancoding.com/sketch -->
    <title>ico添加功能</title>
    <desc>Created with Sketch.</desc>
    <defs></defs>
    <g id="Page-1" stroke="none" stroke-width="1" fill="none" fill-rule="evenodd">
        <g id="大平台" transform="translate(-844.000000, -164.000000)" fill="#D8D8D8">
            <path d="M858.5,178.5 L845.5,178.5 L845.5,178.5 C844.671573,178.5 844,179.171573 844,180 C844,180.828427 844.671573,181.5 845.5,181.5 L858.5,181.5 L858.5,194.5 C858.5,195.328427 859.171573,196 860,196 C860.828427,196 861.5,195.328427 861.5,194.5 L861.5,181.5 L874.5,181.5 C875.328427,181.5 876,180.828427 876,180 C876,179.171573 875.328427,178.5 874.5,178.5 L861.5,178.5 L861.5,165.5 L861.5,165.5 C861.5,164.671573 860.828427,164 860,164 C859.171573,164 858.5,164.671573 858.5,165.5 L858.5,178.5 Z" id="ico添加功能"></path>
        </g>
    </g>
</svg>